<mxfile host="65bd71144e">
    <diagram id="cJSaqKobdzMaE_aVm1SQ" name="distributed">
        <mxGraphModel dx="1900" dy="1760" grid="1" gridSize="10" guides="1" tooltips="1" connect="1" arrows="1" fold="1" page="1" pageScale="1" pageWidth="827" pageHeight="1169" math="0" shadow="0">
            <root>
                <mxCell id="0"/>
                <mxCell id="1" parent="0"/>
                <mxCell id="2" value="AWS Cloud" style="points=[[0,0],[0.25,0],[0.5,0],[0.75,0],[1,0],[1,0.25],[1,0.5],[1,0.75],[1,1],[0.75,1],[0.5,1],[0.25,1],[0,1],[0,0.75],[0,0.5],[0,0.25]];outlineConnect=0;gradientColor=none;html=1;whiteSpace=wrap;fontSize=12;fontStyle=0;container=1;pointerEvents=0;collapsible=0;recursiveResize=0;shape=mxgraph.aws4.group;grIcon=mxgraph.aws4.group_aws_cloud;strokeColor=#232F3E;fillColor=none;verticalAlign=top;align=left;spacingLeft=30;fontColor=#232F3E;dashed=0;" parent="1" vertex="1">
                    <mxGeometry y="-70" width="980" height="640" as="geometry"/>
                </mxCell>
                <mxCell id="34" value="ZCP Option" style="fillColor=none;strokeColor=#5A6C86;dashed=1;verticalAlign=top;fontStyle=1;fontColor=#5A6C86;fontSize=11;" parent="2" vertex="1">
                    <mxGeometry x="60" y="107.5" width="830" height="130" as="geometry"/>
                </mxCell>
                <mxCell id="33" value="" style="fillColor=none;strokeColor=#5A6C86;dashed=1;verticalAlign=top;fontStyle=1;fontColor=#5A6C86;fontSize=11;" parent="2" vertex="1">
                    <mxGeometry x="100" y="474" width="830" height="130" as="geometry"/>
                </mxCell>
                <mxCell id="13" value="Public subnet" style="points=[[0,0],[0.25,0],[0.5,0],[0.75,0],[1,0],[1,0.25],[1,0.5],[1,0.75],[1,1],[0.75,1],[0.5,1],[0.25,1],[0,1],[0,0.75],[0,0.5],[0,0.25]];outlineConnect=0;gradientColor=none;html=1;whiteSpace=wrap;fontSize=12;fontStyle=0;container=1;pointerEvents=0;collapsible=0;recursiveResize=0;shape=mxgraph.aws4.group;grIcon=mxgraph.aws4.group_security_group;grStroke=0;strokeColor=#248814;fillColor=#E9F3E6;verticalAlign=top;align=left;spacingLeft=30;fontColor=#248814;dashed=0;" parent="2" vertex="1">
                    <mxGeometry x="710" y="249" width="160" height="100" as="geometry"/>
                </mxCell>
                <mxCell id="7" value="DEV-VPC" style="points=[[0,0],[0.25,0],[0.5,0],[0.75,0],[1,0],[1,0.25],[1,0.5],[1,0.75],[1,1],[0.75,1],[0.5,1],[0.25,1],[0,1],[0,0.75],[0,0.5],[0,0.25]];outlineConnect=0;gradientColor=none;html=1;whiteSpace=wrap;fontSize=12;fontStyle=0;container=1;pointerEvents=0;collapsible=0;recursiveResize=0;shape=mxgraph.aws4.group;grIcon=mxgraph.aws4.group_vpc;strokeColor=#248814;fillColor=none;verticalAlign=top;align=left;spacingLeft=30;fontColor=#AAB7B8;dashed=0;" parent="2" vertex="1">
                    <mxGeometry x="80" y="70" width="250" height="545" as="geometry"/>
                </mxCell>
                <mxCell id="9" value="Availability Zone" style="fillColor=none;strokeColor=#147EBA;dashed=1;verticalAlign=top;fontStyle=0;fontColor=#147EBA;" parent="7" vertex="1">
                    <mxGeometry x="40" y="20" width="180" height="510" as="geometry"/>
                </mxCell>
                <mxCell id="38" value="&lt;b&gt;ZCP Option&lt;/b&gt;" style="text;html=1;align=center;verticalAlign=middle;resizable=0;points=[];autosize=1;strokeColor=none;fillColor=none;fontSize=11;" parent="7" vertex="1">
                    <mxGeometry x="-40" y="459" width="80" height="20" as="geometry"/>
                </mxCell>
                <mxCell id="3" value="firewall subnet" style="points=[[0,0],[0.25,0],[0.5,0],[0.75,0],[1,0],[1,0.25],[1,0.5],[1,0.75],[1,1],[0.75,1],[0.5,1],[0.25,1],[0,1],[0,0.75],[0,0.5],[0,0.25]];outlineConnect=0;gradientColor=none;html=1;whiteSpace=wrap;fontSize=12;fontStyle=0;container=1;pointerEvents=0;collapsible=0;recursiveResize=0;shape=mxgraph.aws4.group;grIcon=mxgraph.aws4.group_security_group;grStroke=0;strokeColor=#248814;fillColor=#E9F3E6;verticalAlign=top;align=left;spacingLeft=30;fontColor=#248814;dashed=0;" parent="2" vertex="1">
                    <mxGeometry x="130" y="115" width="160" height="115" as="geometry"/>
                </mxCell>
                <mxCell id="19" value="" style="sketch=0;outlineConnect=0;fontColor=#232F3E;gradientColor=none;fillColor=#BF0816;strokeColor=none;dashed=0;verticalLabelPosition=bottom;verticalAlign=top;align=center;html=1;fontSize=12;fontStyle=0;aspect=fixed;pointerEvents=1;shape=mxgraph.aws4.network_firewall_endpoints;" parent="3" vertex="1">
                    <mxGeometry x="55" y="37.5" width="40" height="40" as="geometry"/>
                </mxCell>
                <mxCell id="5" value="pub-subnet" style="points=[[0,0],[0.25,0],[0.5,0],[0.75,0],[1,0],[1,0.25],[1,0.5],[1,0.75],[1,1],[0.75,1],[0.5,1],[0.25,1],[0,1],[0,0.75],[0,0.5],[0,0.25]];outlineConnect=0;gradientColor=none;html=1;whiteSpace=wrap;fontSize=12;fontStyle=0;container=1;pointerEvents=0;collapsible=0;recursiveResize=0;shape=mxgraph.aws4.group;grIcon=mxgraph.aws4.group_security_group;grStroke=0;strokeColor=#248814;fillColor=#E9F3E6;verticalAlign=top;align=left;spacingLeft=30;fontColor=#248814;dashed=0;" parent="2" vertex="1">
                    <mxGeometry x="130" y="249" width="160" height="100" as="geometry"/>
                </mxCell>
                <mxCell id="26" value="&lt;font style=&quot;font-size: 11px&quot;&gt;NAT&lt;/font&gt;" style="sketch=0;outlineConnect=0;fontColor=#232F3E;gradientColor=none;fillColor=#4D27AA;strokeColor=none;dashed=0;verticalLabelPosition=bottom;verticalAlign=top;align=center;html=1;fontSize=12;fontStyle=0;aspect=fixed;pointerEvents=1;shape=mxgraph.aws4.nat_gateway;" parent="5" vertex="1">
                    <mxGeometry x="20" y="33" width="40" height="40" as="geometry"/>
                </mxCell>
                <mxCell id="27" value="&lt;font style=&quot;font-size: 11px&quot;&gt;ALB&lt;/font&gt;" style="sketch=0;outlineConnect=0;fontColor=#232F3E;gradientColor=none;fillColor=#4D27AA;strokeColor=none;dashed=0;verticalLabelPosition=bottom;verticalAlign=top;align=center;html=1;fontSize=12;fontStyle=0;aspect=fixed;pointerEvents=1;shape=mxgraph.aws4.application_load_balancer;" parent="5" vertex="1">
                    <mxGeometry x="90" y="33" width="40" height="40" as="geometry"/>
                </mxCell>
                <mxCell id="6" value="private-subnet" style="points=[[0,0],[0.25,0],[0.5,0],[0.75,0],[1,0],[1,0.25],[1,0.5],[1,0.75],[1,1],[0.75,1],[0.5,1],[0.25,1],[0,1],[0,0.75],[0,0.5],[0,0.25]];outlineConnect=0;gradientColor=none;html=1;whiteSpace=wrap;fontSize=12;fontStyle=0;container=1;pointerEvents=0;collapsible=0;recursiveResize=0;shape=mxgraph.aws4.group;grIcon=mxgraph.aws4.group_security_group;grStroke=0;strokeColor=#147EBA;fillColor=#E6F2F8;verticalAlign=top;align=left;spacingLeft=30;fontColor=#147EBA;dashed=0;" parent="2" vertex="1">
                    <mxGeometry x="130" y="370" width="160" height="100" as="geometry"/>
                </mxCell>
                <mxCell id="8" value="&lt;b&gt;pod-subnet&lt;br&gt;( 100.64.0.0/18 )&lt;/b&gt;" style="points=[[0,0],[0.25,0],[0.5,0],[0.75,0],[1,0],[1,0.25],[1,0.5],[1,0.75],[1,1],[0.75,1],[0.5,1],[0.25,1],[0,1],[0,0.75],[0,0.5],[0,0.25]];outlineConnect=0;gradientColor=none;html=1;whiteSpace=wrap;fontSize=12;fontStyle=0;container=1;pointerEvents=0;collapsible=0;recursiveResize=0;shape=mxgraph.aws4.group;grIcon=mxgraph.aws4.group_security_group;grStroke=0;strokeColor=#147EBA;fillColor=#E6F2F8;verticalAlign=top;align=left;spacingLeft=30;fontColor=#147EBA;dashed=0;" parent="2" vertex="1">
                    <mxGeometry x="130" y="489" width="160" height="100" as="geometry"/>
                </mxCell>
                <mxCell id="10" value="PROD-VPC" style="points=[[0,0],[0.25,0],[0.5,0],[0.75,0],[1,0],[1,0.25],[1,0.5],[1,0.75],[1,1],[0.75,1],[0.5,1],[0.25,1],[0,1],[0,0.75],[0,0.5],[0,0.25]];outlineConnect=0;gradientColor=none;html=1;whiteSpace=wrap;fontSize=12;fontStyle=0;container=1;pointerEvents=0;collapsible=0;recursiveResize=0;shape=mxgraph.aws4.group;grIcon=mxgraph.aws4.group_vpc;strokeColor=#248814;fillColor=none;verticalAlign=top;align=left;spacingLeft=30;fontColor=#AAB7B8;dashed=0;" parent="2" vertex="1">
                    <mxGeometry x="660" y="70" width="250" height="545" as="geometry"/>
                </mxCell>
                <mxCell id="11" value="Availability Zone" style="fillColor=none;strokeColor=#147EBA;dashed=1;verticalAlign=top;fontStyle=0;fontColor=#147EBA;" parent="10" vertex="1">
                    <mxGeometry x="40" y="20" width="180" height="510" as="geometry"/>
                </mxCell>
                <mxCell id="30" value="&lt;font style=&quot;font-size: 11px&quot;&gt;NAT&lt;/font&gt;" style="sketch=0;outlineConnect=0;fontColor=#232F3E;gradientColor=none;fillColor=#4D27AA;strokeColor=none;dashed=0;verticalLabelPosition=bottom;verticalAlign=top;align=center;html=1;fontSize=12;fontStyle=0;aspect=fixed;pointerEvents=1;shape=mxgraph.aws4.nat_gateway;" parent="10" vertex="1">
                    <mxGeometry x="70" y="212" width="40" height="40" as="geometry"/>
                </mxCell>
                <mxCell id="31" value="&lt;font style=&quot;font-size: 11px&quot;&gt;ALB&lt;/font&gt;" style="sketch=0;outlineConnect=0;fontColor=#232F3E;gradientColor=none;fillColor=#4D27AA;strokeColor=none;dashed=0;verticalLabelPosition=bottom;verticalAlign=top;align=center;html=1;fontSize=12;fontStyle=0;aspect=fixed;pointerEvents=1;shape=mxgraph.aws4.application_load_balancer;" parent="10" vertex="1">
                    <mxGeometry x="140" y="212" width="40" height="40" as="geometry"/>
                </mxCell>
                <mxCell id="12" value="Public subnet" style="points=[[0,0],[0.25,0],[0.5,0],[0.75,0],[1,0],[1,0.25],[1,0.5],[1,0.75],[1,1],[0.75,1],[0.5,1],[0.25,1],[0,1],[0,0.75],[0,0.5],[0,0.25]];outlineConnect=0;gradientColor=none;html=1;whiteSpace=wrap;fontSize=12;fontStyle=0;container=1;pointerEvents=0;collapsible=0;recursiveResize=0;shape=mxgraph.aws4.group;grIcon=mxgraph.aws4.group_security_group;grStroke=0;strokeColor=#248814;fillColor=#E9F3E6;verticalAlign=top;align=left;spacingLeft=30;fontColor=#248814;dashed=0;" parent="2" vertex="1">
                    <mxGeometry x="710" y="115" width="160" height="115" as="geometry"/>
                </mxCell>
                <mxCell id="21" value="" style="sketch=0;outlineConnect=0;fontColor=#232F3E;gradientColor=none;fillColor=#BF0816;strokeColor=none;dashed=0;verticalLabelPosition=bottom;verticalAlign=top;align=center;html=1;fontSize=12;fontStyle=0;aspect=fixed;pointerEvents=1;shape=mxgraph.aws4.network_firewall_endpoints;" parent="12" vertex="1">
                    <mxGeometry x="55" y="35" width="40" height="40" as="geometry"/>
                </mxCell>
                <mxCell id="14" value="private-subnet" style="points=[[0,0],[0.25,0],[0.5,0],[0.75,0],[1,0],[1,0.25],[1,0.5],[1,0.75],[1,1],[0.75,1],[0.5,1],[0.25,1],[0,1],[0,0.75],[0,0.5],[0,0.25]];outlineConnect=0;gradientColor=none;html=1;whiteSpace=wrap;fontSize=12;fontStyle=0;container=1;pointerEvents=0;collapsible=0;recursiveResize=0;shape=mxgraph.aws4.group;grIcon=mxgraph.aws4.group_security_group;grStroke=0;strokeColor=#147EBA;fillColor=#E6F2F8;verticalAlign=top;align=left;spacingLeft=30;fontColor=#147EBA;dashed=0;" parent="2" vertex="1">
                    <mxGeometry x="710" y="370" width="160" height="100" as="geometry"/>
                </mxCell>
                <mxCell id="15" value="&lt;b&gt;pod subnet&lt;br&gt;( 100.64.0.0/18 )&lt;/b&gt;" style="points=[[0,0],[0.25,0],[0.5,0],[0.75,0],[1,0],[1,0.25],[1,0.5],[1,0.75],[1,1],[0.75,1],[0.5,1],[0.25,1],[0,1],[0,0.75],[0,0.5],[0,0.25]];outlineConnect=0;gradientColor=none;html=1;whiteSpace=wrap;fontSize=12;fontStyle=0;container=1;pointerEvents=0;collapsible=0;recursiveResize=0;shape=mxgraph.aws4.group;grIcon=mxgraph.aws4.group_security_group;grStroke=0;strokeColor=#147EBA;fillColor=#E6F2F8;verticalAlign=top;align=left;spacingLeft=30;fontColor=#147EBA;dashed=0;" parent="2" vertex="1">
                    <mxGeometry x="710" y="489" width="160" height="100" as="geometry"/>
                </mxCell>
                <mxCell id="16" value="Appliance VPC" style="points=[[0,0],[0.25,0],[0.5,0],[0.75,0],[1,0],[1,0.25],[1,0.5],[1,0.75],[1,1],[0.75,1],[0.5,1],[0.25,1],[0,1],[0,0.75],[0,0.5],[0,0.25]];outlineConnect=0;gradientColor=none;html=1;whiteSpace=wrap;fontSize=12;fontStyle=0;container=1;pointerEvents=0;collapsible=0;recursiveResize=0;shape=mxgraph.aws4.group;grIcon=mxgraph.aws4.group_vpc;strokeColor=#248814;fillColor=none;verticalAlign=top;align=left;spacingLeft=30;fontColor=#AAB7B8;dashed=0;" parent="2" vertex="1">
                    <mxGeometry x="390" y="70" width="200" height="160" as="geometry"/>
                </mxCell>
                <mxCell id="17" value="Private subnet" style="points=[[0,0],[0.25,0],[0.5,0],[0.75,0],[1,0],[1,0.25],[1,0.5],[1,0.75],[1,1],[0.75,1],[0.5,1],[0.25,1],[0,1],[0,0.75],[0,0.5],[0,0.25]];outlineConnect=0;gradientColor=none;html=1;whiteSpace=wrap;fontSize=12;fontStyle=0;container=1;pointerEvents=0;collapsible=0;recursiveResize=0;shape=mxgraph.aws4.group;grIcon=mxgraph.aws4.group_security_group;grStroke=0;strokeColor=#147EBA;fillColor=#E6F2F8;verticalAlign=top;align=left;spacingLeft=30;fontColor=#147EBA;dashed=0;" parent="16" vertex="1">
                    <mxGeometry x="20" y="40" width="160" height="100" as="geometry"/>
                </mxCell>
                <mxCell id="20" value="" style="sketch=0;points=[[0,0,0],[0.25,0,0],[0.5,0,0],[0.75,0,0],[1,0,0],[0,1,0],[0.25,1,0],[0.5,1,0],[0.75,1,0],[1,1,0],[0,0.25,0],[0,0.5,0],[0,0.75,0],[1,0.25,0],[1,0.5,0],[1,0.75,0]];outlineConnect=0;fontColor=#232F3E;gradientColor=#F54749;gradientDirection=north;fillColor=#C7131F;strokeColor=#ffffff;dashed=0;verticalLabelPosition=bottom;verticalAlign=top;align=center;html=1;fontSize=12;fontStyle=0;aspect=fixed;shape=mxgraph.aws4.resourceIcon;resIcon=mxgraph.aws4.network_firewall;" parent="17" vertex="1">
                    <mxGeometry x="60" y="40" width="40" height="40" as="geometry"/>
                </mxCell>
                <mxCell id="28" style="edgeStyle=none;html=1;entryX=0.5;entryY=0;entryDx=0;entryDy=0;entryPerimeter=0;fontSize=11;" parent="16" source="18" target="20" edge="1">
                    <mxGeometry relative="1" as="geometry"/>
                </mxCell>
                <mxCell id="18" value="" style="sketch=0;outlineConnect=0;fontColor=#232F3E;gradientColor=none;fillColor=#4D27AA;strokeColor=none;dashed=0;verticalLabelPosition=bottom;verticalAlign=top;align=center;html=1;fontSize=12;fontStyle=0;aspect=fixed;pointerEvents=1;shape=mxgraph.aws4.gateway_load_balancer;" parent="16" vertex="1">
                    <mxGeometry x="80" y="10" width="40" height="40" as="geometry"/>
                </mxCell>
                <mxCell id="ZhK9pmgiqi2T03xkZhV0-38" style="edgeStyle=orthogonalEdgeStyle;html=1;fontSize=11;startArrow=none;startFill=0;endArrow=classicThin;endFill=0;strokeColor=#CC0000;strokeWidth=2;" parent="2" source="22" target="19" edge="1">
                    <mxGeometry relative="1" as="geometry"/>
                </mxCell>
                <mxCell id="22" value="" style="sketch=0;outlineConnect=0;fontColor=#232F3E;gradientColor=none;fillColor=#4D27AA;strokeColor=none;dashed=0;verticalLabelPosition=bottom;verticalAlign=top;align=center;html=1;fontSize=12;fontStyle=0;aspect=fixed;pointerEvents=1;shape=mxgraph.aws4.internet_gateway;" parent="2" vertex="1">
                    <mxGeometry x="185" y="50" width="40" height="40" as="geometry"/>
                </mxCell>
                <mxCell id="23" style="edgeStyle=none;html=1;endArrow=classicThin;strokeColor=#CC0000;startArrow=none;startFill=0;endFill=0;strokeWidth=2;" parent="2" source="19" target="18" edge="1">
                    <mxGeometry relative="1" as="geometry"/>
                </mxCell>
                <mxCell id="24" style="edgeStyle=none;html=1;" parent="2" source="21" target="18" edge="1">
                    <mxGeometry relative="1" as="geometry"/>
                </mxCell>
                <mxCell id="25" value="" style="sketch=0;outlineConnect=0;fontColor=#232F3E;gradientColor=none;fillColor=#4D27AA;strokeColor=none;dashed=0;verticalLabelPosition=bottom;verticalAlign=top;align=center;html=1;fontSize=12;fontStyle=0;aspect=fixed;pointerEvents=1;shape=mxgraph.aws4.internet_gateway;" parent="2" vertex="1">
                    <mxGeometry x="765" y="50" width="40" height="40" as="geometry"/>
                </mxCell>
                <mxCell id="29" style="edgeStyle=none;html=1;fontSize=11;endArrow=classicThin;strokeColor=#CC0000;startArrow=none;startFill=0;endFill=0;strokeWidth=2;" parent="2" source="19" target="27" edge="1">
                    <mxGeometry relative="1" as="geometry"/>
                </mxCell>
                <mxCell id="32" style="edgeStyle=none;html=1;fontSize=11;" parent="2" source="21" target="31" edge="1">
                    <mxGeometry relative="1" as="geometry"/>
                </mxCell>
                <mxCell id="37" value="&lt;b&gt;Appliance Option&lt;/b&gt;" style="text;html=1;align=center;verticalAlign=middle;resizable=0;points=[];autosize=1;strokeColor=none;fillColor=none;fontSize=11;" parent="2" vertex="1">
                    <mxGeometry x="-20" y="150" width="110" height="20" as="geometry"/>
                </mxCell>
            </root>
        </mxGraphModel>
    </diagram>
    <diagram id="d0w2wQrcXBSLXkX7myKp" name="centralized-inbound">
        <mxGraphModel dx="1073" dy="1760" grid="1" gridSize="10" guides="1" tooltips="1" connect="1" arrows="1" fold="1" page="1" pageScale="1" pageWidth="827" pageHeight="1169" math="0" shadow="0">
            <root>
                <mxCell id="xfcrLn-pKIj3v1cU83DB-0"/>
                <mxCell id="xfcrLn-pKIj3v1cU83DB-1" parent="xfcrLn-pKIj3v1cU83DB-0"/>
                <mxCell id="GvMjPc-RJWoUATpEugXg-35" value="VPC(192.168.0.0/22)" style="points=[[0,0],[0.25,0],[0.5,0],[0.75,0],[1,0],[1,0.25],[1,0.5],[1,0.75],[1,1],[0.75,1],[0.5,1],[0.25,1],[0,1],[0,0.75],[0,0.5],[0,0.25]];outlineConnect=0;gradientColor=none;html=1;whiteSpace=wrap;fontSize=12;fontStyle=0;container=1;pointerEvents=0;collapsible=0;recursiveResize=0;shape=mxgraph.aws4.group;grIcon=mxgraph.aws4.group_vpc;strokeColor=#248814;fillColor=none;verticalAlign=top;align=left;spacingLeft=30;fontColor=#AAB7B8;dashed=0;dashPattern=1 1;" parent="xfcrLn-pKIj3v1cU83DB-1" vertex="1">
                    <mxGeometry x="200" y="90" width="130" height="220" as="geometry"/>
                </mxCell>
                <mxCell id="GvMjPc-RJWoUATpEugXg-42" value="&lt;font style=&quot;font-size: 11px&quot;&gt;Public subnet&lt;/font&gt;" style="points=[[0,0],[0.25,0],[0.5,0],[0.75,0],[1,0],[1,0.25],[1,0.5],[1,0.75],[1,1],[0.75,1],[0.5,1],[0.25,1],[0,1],[0,0.75],[0,0.5],[0,0.25]];outlineConnect=0;gradientColor=none;html=1;whiteSpace=wrap;fontSize=12;fontStyle=0;container=1;pointerEvents=0;collapsible=0;recursiveResize=0;shape=mxgraph.aws4.group;grIcon=mxgraph.aws4.group_security_group;grStroke=0;strokeColor=#248814;fillColor=#E9F3E6;verticalAlign=top;align=left;spacingLeft=30;fontColor=#248814;dashed=0;dashPattern=1 1;" parent="GvMjPc-RJWoUATpEugXg-35" vertex="1">
                    <mxGeometry x="15" y="40" width="100" height="70" as="geometry"/>
                </mxCell>
                <mxCell id="GvMjPc-RJWoUATpEugXg-55" value="&lt;font style=&quot;font-size: 11px&quot;&gt;ALB&lt;/font&gt;" style="sketch=0;outlineConnect=0;fontColor=#232F3E;gradientColor=none;fillColor=#4D27AA;strokeColor=none;dashed=0;verticalLabelPosition=bottom;verticalAlign=top;align=center;html=1;fontSize=12;fontStyle=0;aspect=fixed;pointerEvents=1;shape=mxgraph.aws4.application_load_balancer;dashPattern=1 1;" parent="GvMjPc-RJWoUATpEugXg-42" vertex="1">
                    <mxGeometry x="30" y="20" width="40" height="40" as="geometry"/>
                </mxCell>
                <mxCell id="GvMjPc-RJWoUATpEugXg-44" value="&lt;font style=&quot;font-size: 11px&quot;&gt;Private subnet&lt;/font&gt;" style="points=[[0,0],[0.25,0],[0.5,0],[0.75,0],[1,0],[1,0.25],[1,0.5],[1,0.75],[1,1],[0.75,1],[0.5,1],[0.25,1],[0,1],[0,0.75],[0,0.5],[0,0.25]];outlineConnect=0;gradientColor=none;html=1;whiteSpace=wrap;fontSize=12;fontStyle=0;container=1;pointerEvents=0;collapsible=0;recursiveResize=0;shape=mxgraph.aws4.group;grIcon=mxgraph.aws4.group_security_group;grStroke=0;strokeColor=#147EBA;fillColor=#E6F2F8;verticalAlign=top;align=left;spacingLeft=30;fontColor=#147EBA;dashed=0;dashPattern=1 1;" parent="GvMjPc-RJWoUATpEugXg-35" vertex="1">
                    <mxGeometry x="15" y="130" width="100" height="70" as="geometry"/>
                </mxCell>
                <mxCell id="GvMjPc-RJWoUATpEugXg-56" value="" style="sketch=0;outlineConnect=0;fontColor=#232F3E;gradientColor=none;fillColor=#4D27AA;strokeColor=none;dashed=0;verticalLabelPosition=bottom;verticalAlign=top;align=center;html=1;fontSize=12;fontStyle=0;aspect=fixed;pointerEvents=1;shape=mxgraph.aws4.elastic_network_interface;dashPattern=1 1;" parent="GvMjPc-RJWoUATpEugXg-44" vertex="1">
                    <mxGeometry x="30" y="30" width="40" height="40" as="geometry"/>
                </mxCell>
                <mxCell id="GvMjPc-RJWoUATpEugXg-36" value="Inspection VPC" style="points=[[0,0],[0.25,0],[0.5,0],[0.75,0],[1,0],[1,0.25],[1,0.5],[1,0.75],[1,1],[0.75,1],[0.5,1],[0.25,1],[0,1],[0,0.75],[0,0.5],[0,0.25]];outlineConnect=0;gradientColor=none;html=1;whiteSpace=wrap;fontSize=12;fontStyle=0;container=1;pointerEvents=0;collapsible=0;recursiveResize=0;shape=mxgraph.aws4.group;grIcon=mxgraph.aws4.group_vpc;strokeColor=#248814;fillColor=none;verticalAlign=top;align=left;spacingLeft=30;fontColor=#AAB7B8;dashed=0;dashPattern=1 1;" parent="xfcrLn-pKIj3v1cU83DB-1" vertex="1">
                    <mxGeometry x="360" y="-50" width="280" height="130" as="geometry"/>
                </mxCell>
                <mxCell id="GvMjPc-RJWoUATpEugXg-47" value="&lt;font style=&quot;font-size: 11px&quot;&gt;TGW Subnet&lt;/font&gt;" style="points=[[0,0],[0.25,0],[0.5,0],[0.75,0],[1,0],[1,0.25],[1,0.5],[1,0.75],[1,1],[0.75,1],[0.5,1],[0.25,1],[0,1],[0,0.75],[0,0.5],[0,0.25]];outlineConnect=0;gradientColor=none;html=1;whiteSpace=wrap;fontSize=12;fontStyle=0;container=1;pointerEvents=0;collapsible=0;recursiveResize=0;shape=mxgraph.aws4.group;grIcon=mxgraph.aws4.group_security_group;grStroke=0;strokeColor=#147EBA;fillColor=#E6F2F8;verticalAlign=top;align=left;spacingLeft=30;fontColor=#147EBA;dashed=0;dashPattern=1 1;" parent="GvMjPc-RJWoUATpEugXg-36" vertex="1">
                    <mxGeometry x="10" y="40" width="110" height="70" as="geometry"/>
                </mxCell>
                <mxCell id="GvMjPc-RJWoUATpEugXg-50" value="" style="sketch=0;outlineConnect=0;fontColor=#232F3E;gradientColor=none;fillColor=#4D27AA;strokeColor=none;dashed=0;verticalLabelPosition=bottom;verticalAlign=top;align=center;html=1;fontSize=12;fontStyle=0;aspect=fixed;pointerEvents=1;shape=mxgraph.aws4.elastic_network_interface;dashPattern=1 1;" parent="GvMjPc-RJWoUATpEugXg-47" vertex="1">
                    <mxGeometry x="35" y="20" width="40" height="40" as="geometry"/>
                </mxCell>
                <mxCell id="GvMjPc-RJWoUATpEugXg-48" value="&lt;span style=&quot;font-size: 11px&quot;&gt;Appliance Subnet&lt;/span&gt;" style="points=[[0,0],[0.25,0],[0.5,0],[0.75,0],[1,0],[1,0.25],[1,0.5],[1,0.75],[1,1],[0.75,1],[0.5,1],[0.25,1],[0,1],[0,0.75],[0,0.5],[0,0.25]];outlineConnect=0;gradientColor=none;html=1;whiteSpace=wrap;fontSize=12;fontStyle=0;container=1;pointerEvents=0;collapsible=0;recursiveResize=0;shape=mxgraph.aws4.group;grIcon=mxgraph.aws4.group_security_group;grStroke=0;strokeColor=#147EBA;fillColor=#E6F2F8;verticalAlign=top;align=left;spacingLeft=30;fontColor=#147EBA;dashed=0;dashPattern=1 1;" parent="GvMjPc-RJWoUATpEugXg-36" vertex="1">
                    <mxGeometry x="150" y="40" width="110" height="70" as="geometry"/>
                </mxCell>
                <mxCell id="GvMjPc-RJWoUATpEugXg-53" value="" style="sketch=0;outlineConnect=0;fontColor=#232F3E;gradientColor=none;fillColor=#BF0816;strokeColor=none;dashed=0;verticalLabelPosition=bottom;verticalAlign=top;align=center;html=1;fontSize=12;fontStyle=0;aspect=fixed;pointerEvents=1;shape=mxgraph.aws4.network_firewall_endpoints;dashPattern=1 1;" parent="GvMjPc-RJWoUATpEugXg-48" vertex="1">
                    <mxGeometry x="35" y="20" width="40" height="40" as="geometry"/>
                </mxCell>
                <mxCell id="GvMjPc-RJWoUATpEugXg-54" style="edgeStyle=none;html=1;fontSize=11;startArrow=none;startFill=0;endArrow=blockThin;endFill=1;strokeColor=#0000CC;" parent="GvMjPc-RJWoUATpEugXg-36" source="GvMjPc-RJWoUATpEugXg-50" target="GvMjPc-RJWoUATpEugXg-53" edge="1">
                    <mxGeometry relative="1" as="geometry"/>
                </mxCell>
                <mxCell id="GvMjPc-RJWoUATpEugXg-37" value="&lt;b&gt;Dev VPC(10.0.0.0/18)&lt;/b&gt;" style="points=[[0,0],[0.25,0],[0.5,0],[0.75,0],[1,0],[1,0.25],[1,0.5],[1,0.75],[1,1],[0.75,1],[0.5,1],[0.25,1],[0,1],[0,0.75],[0,0.5],[0,0.25]];outlineConnect=0;gradientColor=none;html=1;whiteSpace=wrap;fontSize=12;fontStyle=0;container=1;pointerEvents=0;collapsible=0;recursiveResize=0;shape=mxgraph.aws4.group;grIcon=mxgraph.aws4.group_vpc;strokeColor=#248814;fillColor=none;verticalAlign=top;align=left;spacingLeft=30;fontColor=#AAB7B8;dashed=0;dashPattern=1 1;" parent="xfcrLn-pKIj3v1cU83DB-1" vertex="1">
                    <mxGeometry x="740" y="-50" width="300" height="130" as="geometry"/>
                </mxCell>
                <mxCell id="GvMjPc-RJWoUATpEugXg-60" value="&lt;font style=&quot;font-size: 11px&quot;&gt;pri subnet&lt;/font&gt;" style="points=[[0,0],[0.25,0],[0.5,0],[0.75,0],[1,0],[1,0.25],[1,0.5],[1,0.75],[1,1],[0.75,1],[0.5,1],[0.25,1],[0,1],[0,0.75],[0,0.5],[0,0.25]];outlineConnect=0;gradientColor=none;html=1;whiteSpace=wrap;fontSize=12;fontStyle=0;container=1;pointerEvents=0;collapsible=0;recursiveResize=0;shape=mxgraph.aws4.group;grIcon=mxgraph.aws4.group_security_group;grStroke=0;strokeColor=#147EBA;fillColor=#E6F2F8;verticalAlign=top;align=left;spacingLeft=30;fontColor=#147EBA;dashed=0;dashPattern=1 1;" parent="GvMjPc-RJWoUATpEugXg-37" vertex="1">
                    <mxGeometry x="20" y="40" width="110" height="70" as="geometry"/>
                </mxCell>
                <mxCell id="GvMjPc-RJWoUATpEugXg-72" value="" style="sketch=0;outlineConnect=0;fontColor=#232F3E;gradientColor=none;fillColor=#D45B07;strokeColor=none;dashed=0;verticalLabelPosition=bottom;verticalAlign=top;align=center;html=1;fontSize=12;fontStyle=0;aspect=fixed;pointerEvents=1;shape=mxgraph.aws4.container_1;dashPattern=1 1;" parent="GvMjPc-RJWoUATpEugXg-60" vertex="1">
                    <mxGeometry x="40" y="30.31" width="30" height="19.38" as="geometry"/>
                </mxCell>
                <mxCell id="GvMjPc-RJWoUATpEugXg-64" value="&lt;font style=&quot;font-size: 11px&quot;&gt;pod subnet&lt;/font&gt;" style="points=[[0,0],[0.25,0],[0.5,0],[0.75,0],[1,0],[1,0.25],[1,0.5],[1,0.75],[1,1],[0.75,1],[0.5,1],[0.25,1],[0,1],[0,0.75],[0,0.5],[0,0.25]];outlineConnect=0;gradientColor=none;html=1;whiteSpace=wrap;fontSize=12;fontStyle=0;container=1;pointerEvents=0;collapsible=0;recursiveResize=0;shape=mxgraph.aws4.group;grIcon=mxgraph.aws4.group_security_group;grStroke=0;strokeColor=#147EBA;fillColor=#E6F2F8;verticalAlign=top;align=left;spacingLeft=30;fontColor=#147EBA;dashed=0;dashPattern=1 1;" parent="GvMjPc-RJWoUATpEugXg-37" vertex="1">
                    <mxGeometry x="160" y="40" width="110" height="70" as="geometry"/>
                </mxCell>
                <mxCell id="GvMjPc-RJWoUATpEugXg-67" value="NLB" style="sketch=0;outlineConnect=0;fontColor=#232F3E;gradientColor=none;fillColor=#4D27AA;strokeColor=none;dashed=0;verticalLabelPosition=bottom;verticalAlign=top;align=center;html=1;fontSize=12;fontStyle=0;aspect=fixed;pointerEvents=1;shape=mxgraph.aws4.application_load_balancer;dashPattern=1 1;" parent="GvMjPc-RJWoUATpEugXg-37" vertex="1">
                    <mxGeometry y="60" width="40" height="40" as="geometry"/>
                </mxCell>
                <mxCell id="GvMjPc-RJWoUATpEugXg-38" value="&lt;b&gt;Shared VPC(172.16.0.0/18)&lt;/b&gt;" style="points=[[0,0],[0.25,0],[0.5,0],[0.75,0],[1,0],[1,0.25],[1,0.5],[1,0.75],[1,1],[0.75,1],[0.5,1],[0.25,1],[0,1],[0,0.75],[0,0.5],[0,0.25]];outlineConnect=0;gradientColor=none;html=1;whiteSpace=wrap;fontSize=12;fontStyle=0;container=1;pointerEvents=0;collapsible=0;recursiveResize=0;shape=mxgraph.aws4.group;grIcon=mxgraph.aws4.group_vpc;strokeColor=#248814;fillColor=none;verticalAlign=top;align=left;spacingLeft=30;fontColor=#AAB7B8;dashed=0;dashPattern=1 1;" parent="xfcrLn-pKIj3v1cU83DB-1" vertex="1">
                    <mxGeometry x="740" y="240" width="300" height="150" as="geometry"/>
                </mxCell>
                <mxCell id="GvMjPc-RJWoUATpEugXg-65" value="&lt;font style=&quot;font-size: 11px&quot;&gt;pri subnet&lt;/font&gt;" style="points=[[0,0],[0.25,0],[0.5,0],[0.75,0],[1,0],[1,0.25],[1,0.5],[1,0.75],[1,1],[0.75,1],[0.5,1],[0.25,1],[0,1],[0,0.75],[0,0.5],[0,0.25]];outlineConnect=0;gradientColor=none;html=1;whiteSpace=wrap;fontSize=12;fontStyle=0;container=1;pointerEvents=0;collapsible=0;recursiveResize=0;shape=mxgraph.aws4.group;grIcon=mxgraph.aws4.group_security_group;grStroke=0;strokeColor=#147EBA;fillColor=#E6F2F8;verticalAlign=top;align=left;spacingLeft=30;fontColor=#147EBA;dashed=0;dashPattern=1 1;" parent="GvMjPc-RJWoUATpEugXg-38" vertex="1">
                    <mxGeometry x="20" y="40" width="110" height="70" as="geometry"/>
                </mxCell>
                <mxCell id="GvMjPc-RJWoUATpEugXg-76" value="NLB" style="sketch=0;outlineConnect=0;fontColor=#232F3E;gradientColor=none;fillColor=#4D27AA;strokeColor=none;dashed=0;verticalLabelPosition=bottom;verticalAlign=top;align=center;html=1;fontSize=12;fontStyle=0;aspect=fixed;pointerEvents=1;shape=mxgraph.aws4.application_load_balancer;dashPattern=1 1;" parent="GvMjPc-RJWoUATpEugXg-65" vertex="1">
                    <mxGeometry x="-20" y="20" width="40" height="40" as="geometry"/>
                </mxCell>
                <mxCell id="GvMjPc-RJWoUATpEugXg-77" value="" style="sketch=0;outlineConnect=0;fontColor=#232F3E;gradientColor=none;fillColor=#D45B07;strokeColor=none;dashed=0;verticalLabelPosition=bottom;verticalAlign=top;align=center;html=1;fontSize=12;fontStyle=0;aspect=fixed;pointerEvents=1;shape=mxgraph.aws4.container_1;dashPattern=1 1;" parent="GvMjPc-RJWoUATpEugXg-65" vertex="1">
                    <mxGeometry x="37" y="30.310000000000002" width="30" height="19.38" as="geometry"/>
                </mxCell>
                <mxCell id="GvMjPc-RJWoUATpEugXg-66" value="&lt;font style=&quot;font-size: 11px&quot;&gt;pod subnet&lt;/font&gt;" style="points=[[0,0],[0.25,0],[0.5,0],[0.75,0],[1,0],[1,0.25],[1,0.5],[1,0.75],[1,1],[0.75,1],[0.5,1],[0.25,1],[0,1],[0,0.75],[0,0.5],[0,0.25]];outlineConnect=0;gradientColor=none;html=1;whiteSpace=wrap;fontSize=12;fontStyle=0;container=1;pointerEvents=0;collapsible=0;recursiveResize=0;shape=mxgraph.aws4.group;grIcon=mxgraph.aws4.group_security_group;grStroke=0;strokeColor=#147EBA;fillColor=#E6F2F8;verticalAlign=top;align=left;spacingLeft=30;fontColor=#147EBA;dashed=0;dashPattern=1 1;" parent="GvMjPc-RJWoUATpEugXg-38" vertex="1">
                    <mxGeometry x="160" y="40" width="110" height="70" as="geometry"/>
                </mxCell>
                <mxCell id="GvMjPc-RJWoUATpEugXg-49" style="edgeStyle=none;html=1;entryX=1;entryY=0.75;entryDx=0;entryDy=0;fontSize=11;endArrow=none;endFill=0;strokeColor=#0000CC;startArrow=blockThin;startFill=1;strokeWidth=2;" parent="xfcrLn-pKIj3v1cU83DB-1" source="GvMjPc-RJWoUATpEugXg-40" target="GvMjPc-RJWoUATpEugXg-35" edge="1">
                    <mxGeometry relative="1" as="geometry"/>
                </mxCell>
                <mxCell id="GvMjPc-RJWoUATpEugXg-51" style="edgeStyle=orthogonalEdgeStyle;html=1;entryX=0.5;entryY=1;entryDx=0;entryDy=0;fontSize=11;startArrow=none;startFill=0;endArrow=blockThin;endFill=1;strokeColor=#0000CC;strokeWidth=2;" parent="xfcrLn-pKIj3v1cU83DB-1" source="GvMjPc-RJWoUATpEugXg-40" target="GvMjPc-RJWoUATpEugXg-47" edge="1">
                    <mxGeometry relative="1" as="geometry"/>
                </mxCell>
                <mxCell id="GvMjPc-RJWoUATpEugXg-81" style="edgeStyle=orthogonalEdgeStyle;html=1;fontSize=11;startArrow=none;startFill=0;endArrow=blockThin;endFill=1;strokeColor=#0000CC;strokeWidth=2;" parent="xfcrLn-pKIj3v1cU83DB-1" source="GvMjPc-RJWoUATpEugXg-40" target="GvMjPc-RJWoUATpEugXg-67" edge="1">
                    <mxGeometry relative="1" as="geometry">
                        <Array as="points">
                            <mxPoint x="710" y="255"/>
                            <mxPoint x="710" y="30"/>
                        </Array>
                    </mxGeometry>
                </mxCell>
                <mxCell id="GvMjPc-RJWoUATpEugXg-40" value="" style="sketch=0;points=[[0,0,0],[0.25,0,0],[0.5,0,0],[0.75,0,0],[1,0,0],[0,1,0],[0.25,1,0],[0.5,1,0],[0.75,1,0],[1,1,0],[0,0.25,0],[0,0.5,0],[0,0.75,0],[1,0.25,0],[1,0.5,0],[1,0.75,0]];outlineConnect=0;fontColor=#232F3E;gradientColor=#945DF2;gradientDirection=north;fillColor=#5A30B5;strokeColor=#ffffff;dashed=0;verticalLabelPosition=bottom;verticalAlign=top;align=center;html=1;fontSize=12;fontStyle=0;aspect=fixed;shape=mxgraph.aws4.resourceIcon;resIcon=mxgraph.aws4.transit_gateway;dashPattern=1 1;" parent="xfcrLn-pKIj3v1cU83DB-1" vertex="1">
                    <mxGeometry x="475" y="235" width="40" height="40" as="geometry"/>
                </mxCell>
                <mxCell id="GvMjPc-RJWoUATpEugXg-70" style="edgeStyle=orthogonalEdgeStyle;html=1;fontSize=11;startArrow=none;startFill=0;endArrow=blockThin;endFill=1;strokeColor=#0000CC;strokeWidth=2;" parent="xfcrLn-pKIj3v1cU83DB-1" source="GvMjPc-RJWoUATpEugXg-45" target="GvMjPc-RJWoUATpEugXg-55" edge="1">
                    <mxGeometry relative="1" as="geometry"/>
                </mxCell>
                <mxCell id="GvMjPc-RJWoUATpEugXg-45" value="" style="sketch=0;outlineConnect=0;fontColor=#232F3E;gradientColor=none;fillColor=#4D27AA;strokeColor=none;dashed=0;verticalLabelPosition=bottom;verticalAlign=top;align=center;html=1;fontSize=12;fontStyle=0;aspect=fixed;pointerEvents=1;shape=mxgraph.aws4.internet_gateway;dashPattern=1 1;" parent="xfcrLn-pKIj3v1cU83DB-1" vertex="1">
                    <mxGeometry x="245" y="60" width="40" height="40" as="geometry"/>
                </mxCell>
                <mxCell id="GvMjPc-RJWoUATpEugXg-59" style="edgeStyle=orthogonalEdgeStyle;html=1;entryX=1;entryY=0.25;entryDx=0;entryDy=0;entryPerimeter=0;fontSize=11;startArrow=none;startFill=0;endArrow=blockThin;endFill=1;strokeColor=#0000CC;strokeWidth=2;" parent="xfcrLn-pKIj3v1cU83DB-1" source="GvMjPc-RJWoUATpEugXg-53" target="GvMjPc-RJWoUATpEugXg-40" edge="1">
                    <mxGeometry relative="1" as="geometry">
                        <Array as="points">
                            <mxPoint x="565" y="80"/>
                            <mxPoint x="530" y="80"/>
                            <mxPoint x="530" y="245"/>
                        </Array>
                    </mxGeometry>
                </mxCell>
                <mxCell id="GvMjPc-RJWoUATpEugXg-69" style="edgeStyle=orthogonalEdgeStyle;html=1;fontSize=11;startArrow=none;startFill=0;endArrow=blockThin;endFill=1;strokeColor=#0000CC;strokeWidth=2;" parent="xfcrLn-pKIj3v1cU83DB-1" source="GvMjPc-RJWoUATpEugXg-68" target="GvMjPc-RJWoUATpEugXg-45" edge="1">
                    <mxGeometry relative="1" as="geometry"/>
                </mxCell>
                <mxCell id="GvMjPc-RJWoUATpEugXg-68" value="" style="sketch=0;outlineConnect=0;fontColor=#232F3E;gradientColor=none;fillColor=#232F3D;strokeColor=none;dashed=0;verticalLabelPosition=bottom;verticalAlign=top;align=center;html=1;fontSize=12;fontStyle=0;aspect=fixed;pointerEvents=1;shape=mxgraph.aws4.client;dashPattern=1 1;" parent="xfcrLn-pKIj3v1cU83DB-1" vertex="1">
                    <mxGeometry x="245" y="-30" width="40" height="40" as="geometry"/>
                </mxCell>
                <mxCell id="GvMjPc-RJWoUATpEugXg-79" style="edgeStyle=orthogonalEdgeStyle;html=1;fontSize=11;startArrow=none;startFill=0;endArrow=oval;endFill=0;" parent="xfcrLn-pKIj3v1cU83DB-1" source="GvMjPc-RJWoUATpEugXg-78" target="GvMjPc-RJWoUATpEugXg-55" edge="1">
                    <mxGeometry relative="1" as="geometry"/>
                </mxCell>
                <mxCell id="GvMjPc-RJWoUATpEugXg-78" value="" style="sketch=0;points=[[0,0,0],[0.25,0,0],[0.5,0,0],[0.75,0,0],[1,0,0],[0,1,0],[0.25,1,0],[0.5,1,0],[0.75,1,0],[1,1,0],[0,0.25,0],[0,0.5,0],[0,0.75,0],[1,0.25,0],[1,0.5,0],[1,0.75,0]];outlineConnect=0;fontColor=#232F3E;gradientColor=#945DF2;gradientDirection=north;fillColor=#5A30B5;strokeColor=#ffffff;dashed=0;verticalLabelPosition=bottom;verticalAlign=top;align=center;html=1;fontSize=12;fontStyle=0;aspect=fixed;shape=mxgraph.aws4.resourceIcon;resIcon=mxgraph.aws4.global_accelerator;dashPattern=1 1;" parent="xfcrLn-pKIj3v1cU83DB-1" vertex="1">
                    <mxGeometry x="140" y="150" width="40" height="40" as="geometry"/>
                </mxCell>
                <mxCell id="GvMjPc-RJWoUATpEugXg-80" value="static ip" style="text;html=1;align=center;verticalAlign=middle;resizable=0;points=[];autosize=1;strokeColor=none;fillColor=none;fontSize=11;" parent="xfcrLn-pKIj3v1cU83DB-1" vertex="1">
                    <mxGeometry x="133" y="189" width="50" height="20" as="geometry"/>
                </mxCell>
                <mxCell id="GvMjPc-RJWoUATpEugXg-82" style="edgeStyle=orthogonalEdgeStyle;html=1;fontSize=11;startArrow=none;startFill=0;endArrow=oval;endFill=0;" parent="xfcrLn-pKIj3v1cU83DB-1" source="GvMjPc-RJWoUATpEugXg-77" target="GvMjPc-RJWoUATpEugXg-40" edge="1">
                    <mxGeometry relative="1" as="geometry">
                        <Array as="points">
                            <mxPoint x="812" y="420"/>
                            <mxPoint x="495" y="420"/>
                        </Array>
                    </mxGeometry>
                </mxCell>
            </root>
        </mxGraphModel>
    </diagram>
    <diagram name="centralized-outbound" id="C56GHCqb9WIDlc1hP0yN">
        <mxGraphModel dx="823" dy="1717" grid="1" gridSize="10" guides="1" tooltips="1" connect="1" arrows="1" fold="1" page="1" pageScale="1" pageWidth="827" pageHeight="1169" math="0" shadow="0">
            <root>
                <mxCell id="MM_dy48uZ_RCsjw1Z960-0"/>
                <mxCell id="MM_dy48uZ_RCsjw1Z960-1" parent="MM_dy48uZ_RCsjw1Z960-0"/>
                <mxCell id="MM_dy48uZ_RCsjw1Z960-2" value="&lt;b&gt;DMZ VPC&lt;/b&gt;" style="points=[[0,0],[0.25,0],[0.5,0],[0.75,0],[1,0],[1,0.25],[1,0.5],[1,0.75],[1,1],[0.75,1],[0.5,1],[0.25,1],[0,1],[0,0.75],[0,0.5],[0,0.25]];outlineConnect=0;gradientColor=none;html=1;whiteSpace=wrap;fontSize=12;fontStyle=0;container=1;pointerEvents=0;collapsible=0;recursiveResize=0;shape=mxgraph.aws4.group;grIcon=mxgraph.aws4.group_vpc;strokeColor=#248814;fillColor=none;verticalAlign=top;align=left;spacingLeft=30;fontColor=#AAB7B8;dashed=0;dashPattern=1 1;" parent="MM_dy48uZ_RCsjw1Z960-1" vertex="1">
                    <mxGeometry x="200" y="90" width="130" height="220" as="geometry"/>
                </mxCell>
                <mxCell id="MM_dy48uZ_RCsjw1Z960-3" value="&lt;font style=&quot;font-size: 11px&quot;&gt;Public subnet&lt;/font&gt;" style="points=[[0,0],[0.25,0],[0.5,0],[0.75,0],[1,0],[1,0.25],[1,0.5],[1,0.75],[1,1],[0.75,1],[0.5,1],[0.25,1],[0,1],[0,0.75],[0,0.5],[0,0.25]];outlineConnect=0;gradientColor=none;html=1;whiteSpace=wrap;fontSize=12;fontStyle=0;container=1;pointerEvents=0;collapsible=0;recursiveResize=0;shape=mxgraph.aws4.group;grIcon=mxgraph.aws4.group_security_group;grStroke=0;strokeColor=#248814;fillColor=#E9F3E6;verticalAlign=top;align=left;spacingLeft=30;fontColor=#248814;dashed=0;dashPattern=1 1;" parent="MM_dy48uZ_RCsjw1Z960-2" vertex="1">
                    <mxGeometry x="15" y="40" width="100" height="70" as="geometry"/>
                </mxCell>
                <mxCell id="MM_dy48uZ_RCsjw1Z960-36" value="&lt;font style=&quot;font-size: 11px&quot;&gt;&lt;b&gt;NGW&lt;/b&gt;&lt;/font&gt;" style="sketch=0;outlineConnect=0;fontColor=#232F3E;gradientColor=none;fillColor=#4D27AA;strokeColor=none;dashed=0;verticalLabelPosition=bottom;verticalAlign=top;align=center;html=1;fontSize=12;fontStyle=0;aspect=fixed;pointerEvents=1;shape=mxgraph.aws4.nat_gateway;dashPattern=1 1;" parent="MM_dy48uZ_RCsjw1Z960-3" vertex="1">
                    <mxGeometry x="30" y="20" width="40" height="40" as="geometry"/>
                </mxCell>
                <mxCell id="MM_dy48uZ_RCsjw1Z960-5" value="&lt;font style=&quot;font-size: 11px&quot;&gt;Private subnet&lt;/font&gt;" style="points=[[0,0],[0.25,0],[0.5,0],[0.75,0],[1,0],[1,0.25],[1,0.5],[1,0.75],[1,1],[0.75,1],[0.5,1],[0.25,1],[0,1],[0,0.75],[0,0.5],[0,0.25]];outlineConnect=0;gradientColor=none;html=1;whiteSpace=wrap;fontSize=12;fontStyle=0;container=1;pointerEvents=0;collapsible=0;recursiveResize=0;shape=mxgraph.aws4.group;grIcon=mxgraph.aws4.group_security_group;grStroke=0;strokeColor=#147EBA;fillColor=#E6F2F8;verticalAlign=top;align=left;spacingLeft=30;fontColor=#147EBA;dashed=0;dashPattern=1 1;" parent="MM_dy48uZ_RCsjw1Z960-2" vertex="1">
                    <mxGeometry x="15" y="130" width="100" height="70" as="geometry"/>
                </mxCell>
                <mxCell id="MM_dy48uZ_RCsjw1Z960-6" value="" style="sketch=0;outlineConnect=0;fontColor=#232F3E;gradientColor=none;fillColor=#4D27AA;strokeColor=none;dashed=0;verticalLabelPosition=bottom;verticalAlign=top;align=center;html=1;fontSize=12;fontStyle=0;aspect=fixed;pointerEvents=1;shape=mxgraph.aws4.elastic_network_interface;dashPattern=1 1;" parent="MM_dy48uZ_RCsjw1Z960-5" vertex="1">
                    <mxGeometry x="30" y="30" width="40" height="40" as="geometry"/>
                </mxCell>
                <mxCell id="MM_dy48uZ_RCsjw1Z960-38" style="edgeStyle=orthogonalEdgeStyle;html=1;fontSize=11;startArrow=none;startFill=0;endArrow=blockThin;endFill=1;strokeColor=#CC0000;strokeWidth=2;" parent="MM_dy48uZ_RCsjw1Z960-2" source="MM_dy48uZ_RCsjw1Z960-6" target="MM_dy48uZ_RCsjw1Z960-36" edge="1">
                    <mxGeometry relative="1" as="geometry"/>
                </mxCell>
                <mxCell id="MM_dy48uZ_RCsjw1Z960-7" value="&lt;b&gt;Inspection VPC&lt;/b&gt;" style="points=[[0,0],[0.25,0],[0.5,0],[0.75,0],[1,0],[1,0.25],[1,0.5],[1,0.75],[1,1],[0.75,1],[0.5,1],[0.25,1],[0,1],[0,0.75],[0,0.5],[0,0.25]];outlineConnect=0;gradientColor=none;html=1;whiteSpace=wrap;fontSize=12;fontStyle=0;container=1;pointerEvents=0;collapsible=0;recursiveResize=0;shape=mxgraph.aws4.group;grIcon=mxgraph.aws4.group_vpc;strokeColor=#248814;fillColor=none;verticalAlign=top;align=left;spacingLeft=30;fontColor=#AAB7B8;dashed=0;dashPattern=1 1;" parent="MM_dy48uZ_RCsjw1Z960-1" vertex="1">
                    <mxGeometry x="360" y="-50" width="280" height="130" as="geometry"/>
                </mxCell>
                <mxCell id="MM_dy48uZ_RCsjw1Z960-8" value="&lt;font style=&quot;font-size: 11px&quot;&gt;TGW Subnet&lt;/font&gt;" style="points=[[0,0],[0.25,0],[0.5,0],[0.75,0],[1,0],[1,0.25],[1,0.5],[1,0.75],[1,1],[0.75,1],[0.5,1],[0.25,1],[0,1],[0,0.75],[0,0.5],[0,0.25]];outlineConnect=0;gradientColor=none;html=1;whiteSpace=wrap;fontSize=12;fontStyle=0;container=1;pointerEvents=0;collapsible=0;recursiveResize=0;shape=mxgraph.aws4.group;grIcon=mxgraph.aws4.group_security_group;grStroke=0;strokeColor=#147EBA;fillColor=#E6F2F8;verticalAlign=top;align=left;spacingLeft=30;fontColor=#147EBA;dashed=0;dashPattern=1 1;" parent="MM_dy48uZ_RCsjw1Z960-7" vertex="1">
                    <mxGeometry x="10" y="40" width="110" height="70" as="geometry"/>
                </mxCell>
                <mxCell id="MM_dy48uZ_RCsjw1Z960-9" value="" style="sketch=0;outlineConnect=0;fontColor=#232F3E;gradientColor=none;fillColor=#4D27AA;strokeColor=none;dashed=0;verticalLabelPosition=bottom;verticalAlign=top;align=center;html=1;fontSize=12;fontStyle=0;aspect=fixed;pointerEvents=1;shape=mxgraph.aws4.elastic_network_interface;dashPattern=1 1;" parent="MM_dy48uZ_RCsjw1Z960-8" vertex="1">
                    <mxGeometry x="35" y="20" width="40" height="40" as="geometry"/>
                </mxCell>
                <mxCell id="MM_dy48uZ_RCsjw1Z960-10" value="&lt;span style=&quot;font-size: 11px&quot;&gt;Appliance Subnet&lt;/span&gt;" style="points=[[0,0],[0.25,0],[0.5,0],[0.75,0],[1,0],[1,0.25],[1,0.5],[1,0.75],[1,1],[0.75,1],[0.5,1],[0.25,1],[0,1],[0,0.75],[0,0.5],[0,0.25]];outlineConnect=0;gradientColor=none;html=1;whiteSpace=wrap;fontSize=12;fontStyle=0;container=1;pointerEvents=0;collapsible=0;recursiveResize=0;shape=mxgraph.aws4.group;grIcon=mxgraph.aws4.group_security_group;grStroke=0;strokeColor=#147EBA;fillColor=#E6F2F8;verticalAlign=top;align=left;spacingLeft=30;fontColor=#147EBA;dashed=0;dashPattern=1 1;" parent="MM_dy48uZ_RCsjw1Z960-7" vertex="1">
                    <mxGeometry x="150" y="40" width="110" height="70" as="geometry"/>
                </mxCell>
                <mxCell id="MM_dy48uZ_RCsjw1Z960-11" value="" style="sketch=0;outlineConnect=0;fontColor=#232F3E;gradientColor=none;fillColor=#BF0816;strokeColor=none;dashed=0;verticalLabelPosition=bottom;verticalAlign=top;align=center;html=1;fontSize=12;fontStyle=0;aspect=fixed;pointerEvents=1;shape=mxgraph.aws4.network_firewall_endpoints;dashPattern=1 1;" parent="MM_dy48uZ_RCsjw1Z960-10" vertex="1">
                    <mxGeometry x="35" y="20" width="40" height="40" as="geometry"/>
                </mxCell>
                <mxCell id="MM_dy48uZ_RCsjw1Z960-12" style="edgeStyle=none;html=1;fontSize=11;startArrow=none;startFill=0;endArrow=blockThin;endFill=1;strokeColor=#0000CC;" parent="MM_dy48uZ_RCsjw1Z960-7" source="MM_dy48uZ_RCsjw1Z960-9" target="MM_dy48uZ_RCsjw1Z960-11" edge="1">
                    <mxGeometry relative="1" as="geometry"/>
                </mxCell>
                <mxCell id="MM_dy48uZ_RCsjw1Z960-13" value="&lt;b&gt;Dev VPC&lt;/b&gt;" style="points=[[0,0],[0.25,0],[0.5,0],[0.75,0],[1,0],[1,0.25],[1,0.5],[1,0.75],[1,1],[0.75,1],[0.5,1],[0.25,1],[0,1],[0,0.75],[0,0.5],[0,0.25]];outlineConnect=0;gradientColor=none;html=1;whiteSpace=wrap;fontSize=12;fontStyle=0;container=1;pointerEvents=0;collapsible=0;recursiveResize=0;shape=mxgraph.aws4.group;grIcon=mxgraph.aws4.group_vpc;strokeColor=#248814;fillColor=none;verticalAlign=top;align=left;spacingLeft=30;fontColor=#AAB7B8;dashed=0;dashPattern=1 1;" parent="MM_dy48uZ_RCsjw1Z960-1" vertex="1">
                    <mxGeometry x="740" y="-50" width="300" height="130" as="geometry"/>
                </mxCell>
                <mxCell id="MM_dy48uZ_RCsjw1Z960-14" value="&lt;font style=&quot;font-size: 11px&quot;&gt;pri subnet&lt;/font&gt;" style="points=[[0,0],[0.25,0],[0.5,0],[0.75,0],[1,0],[1,0.25],[1,0.5],[1,0.75],[1,1],[0.75,1],[0.5,1],[0.25,1],[0,1],[0,0.75],[0,0.5],[0,0.25]];outlineConnect=0;gradientColor=none;html=1;whiteSpace=wrap;fontSize=12;fontStyle=0;container=1;pointerEvents=0;collapsible=0;recursiveResize=0;shape=mxgraph.aws4.group;grIcon=mxgraph.aws4.group_security_group;grStroke=0;strokeColor=#147EBA;fillColor=#E6F2F8;verticalAlign=top;align=left;spacingLeft=30;fontColor=#147EBA;dashed=0;dashPattern=1 1;" parent="MM_dy48uZ_RCsjw1Z960-13" vertex="1">
                    <mxGeometry x="20" y="40" width="110" height="70" as="geometry"/>
                </mxCell>
                <mxCell id="MM_dy48uZ_RCsjw1Z960-15" value="" style="sketch=0;outlineConnect=0;fontColor=#232F3E;gradientColor=none;fillColor=#D45B07;strokeColor=none;dashed=0;verticalLabelPosition=bottom;verticalAlign=top;align=center;html=1;fontSize=12;fontStyle=0;aspect=fixed;pointerEvents=1;shape=mxgraph.aws4.container_1;dashPattern=1 1;" parent="MM_dy48uZ_RCsjw1Z960-14" vertex="1">
                    <mxGeometry x="40" y="30.31" width="30" height="19.38" as="geometry"/>
                </mxCell>
                <mxCell id="MM_dy48uZ_RCsjw1Z960-16" value="&lt;font style=&quot;font-size: 11px&quot;&gt;pod subnet&lt;/font&gt;" style="points=[[0,0],[0.25,0],[0.5,0],[0.75,0],[1,0],[1,0.25],[1,0.5],[1,0.75],[1,1],[0.75,1],[0.5,1],[0.25,1],[0,1],[0,0.75],[0,0.5],[0,0.25]];outlineConnect=0;gradientColor=none;html=1;whiteSpace=wrap;fontSize=12;fontStyle=0;container=1;pointerEvents=0;collapsible=0;recursiveResize=0;shape=mxgraph.aws4.group;grIcon=mxgraph.aws4.group_security_group;grStroke=0;strokeColor=#147EBA;fillColor=#E6F2F8;verticalAlign=top;align=left;spacingLeft=30;fontColor=#147EBA;dashed=0;dashPattern=1 1;" parent="MM_dy48uZ_RCsjw1Z960-13" vertex="1">
                    <mxGeometry x="160" y="40" width="110" height="70" as="geometry"/>
                </mxCell>
                <mxCell id="MM_dy48uZ_RCsjw1Z960-17" value="NLB" style="sketch=0;outlineConnect=0;fontColor=#232F3E;gradientColor=none;fillColor=#4D27AA;strokeColor=none;dashed=0;verticalLabelPosition=bottom;verticalAlign=top;align=center;html=1;fontSize=12;fontStyle=0;aspect=fixed;pointerEvents=1;shape=mxgraph.aws4.application_load_balancer;dashPattern=1 1;" parent="MM_dy48uZ_RCsjw1Z960-13" vertex="1">
                    <mxGeometry y="60" width="40" height="40" as="geometry"/>
                </mxCell>
                <mxCell id="MM_dy48uZ_RCsjw1Z960-18" value="&lt;b&gt;Shared VPC&lt;/b&gt;" style="points=[[0,0],[0.25,0],[0.5,0],[0.75,0],[1,0],[1,0.25],[1,0.5],[1,0.75],[1,1],[0.75,1],[0.5,1],[0.25,1],[0,1],[0,0.75],[0,0.5],[0,0.25]];outlineConnect=0;gradientColor=none;html=1;whiteSpace=wrap;fontSize=12;fontStyle=0;container=1;pointerEvents=0;collapsible=0;recursiveResize=0;shape=mxgraph.aws4.group;grIcon=mxgraph.aws4.group_vpc;strokeColor=#248814;fillColor=none;verticalAlign=top;align=left;spacingLeft=30;fontColor=#AAB7B8;dashed=0;dashPattern=1 1;" parent="MM_dy48uZ_RCsjw1Z960-1" vertex="1">
                    <mxGeometry x="740" y="240" width="300" height="150" as="geometry"/>
                </mxCell>
                <mxCell id="MM_dy48uZ_RCsjw1Z960-19" value="&lt;font style=&quot;font-size: 11px&quot;&gt;pri subnet&lt;/font&gt;" style="points=[[0,0],[0.25,0],[0.5,0],[0.75,0],[1,0],[1,0.25],[1,0.5],[1,0.75],[1,1],[0.75,1],[0.5,1],[0.25,1],[0,1],[0,0.75],[0,0.5],[0,0.25]];outlineConnect=0;gradientColor=none;html=1;whiteSpace=wrap;fontSize=12;fontStyle=0;container=1;pointerEvents=0;collapsible=0;recursiveResize=0;shape=mxgraph.aws4.group;grIcon=mxgraph.aws4.group_security_group;grStroke=0;strokeColor=#147EBA;fillColor=#E6F2F8;verticalAlign=top;align=left;spacingLeft=30;fontColor=#147EBA;dashed=0;dashPattern=1 1;" parent="MM_dy48uZ_RCsjw1Z960-18" vertex="1">
                    <mxGeometry x="20" y="40" width="110" height="70" as="geometry"/>
                </mxCell>
                <mxCell id="MM_dy48uZ_RCsjw1Z960-20" value="" style="sketch=0;outlineConnect=0;fontColor=#232F3E;gradientColor=none;fillColor=#4D27AA;strokeColor=none;dashed=0;verticalLabelPosition=bottom;verticalAlign=top;align=center;html=1;fontSize=12;fontStyle=0;aspect=fixed;pointerEvents=1;shape=mxgraph.aws4.application_load_balancer;dashPattern=1 1;" parent="MM_dy48uZ_RCsjw1Z960-19" vertex="1">
                    <mxGeometry x="-20" y="20" width="40" height="40" as="geometry"/>
                </mxCell>
                <mxCell id="MM_dy48uZ_RCsjw1Z960-21" value="" style="sketch=0;outlineConnect=0;fontColor=#232F3E;gradientColor=none;fillColor=#D45B07;strokeColor=none;dashed=0;verticalLabelPosition=bottom;verticalAlign=top;align=center;html=1;fontSize=12;fontStyle=0;aspect=fixed;pointerEvents=1;shape=mxgraph.aws4.container_1;dashPattern=1 1;" parent="MM_dy48uZ_RCsjw1Z960-19" vertex="1">
                    <mxGeometry x="37" y="30.310000000000002" width="30" height="19.38" as="geometry"/>
                </mxCell>
                <mxCell id="MM_dy48uZ_RCsjw1Z960-22" value="&lt;font style=&quot;font-size: 11px&quot;&gt;pod subnet&lt;/font&gt;" style="points=[[0,0],[0.25,0],[0.5,0],[0.75,0],[1,0],[1,0.25],[1,0.5],[1,0.75],[1,1],[0.75,1],[0.5,1],[0.25,1],[0,1],[0,0.75],[0,0.5],[0,0.25]];outlineConnect=0;gradientColor=none;html=1;whiteSpace=wrap;fontSize=12;fontStyle=0;container=1;pointerEvents=0;collapsible=0;recursiveResize=0;shape=mxgraph.aws4.group;grIcon=mxgraph.aws4.group_security_group;grStroke=0;strokeColor=#147EBA;fillColor=#E6F2F8;verticalAlign=top;align=left;spacingLeft=30;fontColor=#147EBA;dashed=0;dashPattern=1 1;" parent="MM_dy48uZ_RCsjw1Z960-18" vertex="1">
                    <mxGeometry x="160" y="40" width="110" height="70" as="geometry"/>
                </mxCell>
                <mxCell id="MM_dy48uZ_RCsjw1Z960-23" style="edgeStyle=none;html=1;entryX=1;entryY=0.75;entryDx=0;entryDy=0;fontSize=11;endArrow=blockThin;endFill=1;strokeColor=#CC0000;startArrow=none;startFill=0;strokeWidth=2;" parent="MM_dy48uZ_RCsjw1Z960-1" source="MM_dy48uZ_RCsjw1Z960-26" target="MM_dy48uZ_RCsjw1Z960-2" edge="1">
                    <mxGeometry relative="1" as="geometry"/>
                </mxCell>
                <mxCell id="MM_dy48uZ_RCsjw1Z960-24" style="edgeStyle=orthogonalEdgeStyle;html=1;entryX=0.5;entryY=1;entryDx=0;entryDy=0;fontSize=11;startArrow=none;startFill=0;endArrow=blockThin;endFill=1;strokeColor=#CC0000;strokeWidth=2;" parent="MM_dy48uZ_RCsjw1Z960-1" source="MM_dy48uZ_RCsjw1Z960-26" target="MM_dy48uZ_RCsjw1Z960-8" edge="1">
                    <mxGeometry relative="1" as="geometry"/>
                </mxCell>
                <mxCell id="MM_dy48uZ_RCsjw1Z960-26" value="" style="sketch=0;points=[[0,0,0],[0.25,0,0],[0.5,0,0],[0.75,0,0],[1,0,0],[0,1,0],[0.25,1,0],[0.5,1,0],[0.75,1,0],[1,1,0],[0,0.25,0],[0,0.5,0],[0,0.75,0],[1,0.25,0],[1,0.5,0],[1,0.75,0]];outlineConnect=0;fontColor=#232F3E;gradientColor=#945DF2;gradientDirection=north;fillColor=#5A30B5;strokeColor=#ffffff;dashed=0;verticalLabelPosition=bottom;verticalAlign=top;align=center;html=1;fontSize=12;fontStyle=0;aspect=fixed;shape=mxgraph.aws4.resourceIcon;resIcon=mxgraph.aws4.transit_gateway;dashPattern=1 1;" parent="MM_dy48uZ_RCsjw1Z960-1" vertex="1">
                    <mxGeometry x="475" y="235" width="40" height="40" as="geometry"/>
                </mxCell>
                <mxCell id="MM_dy48uZ_RCsjw1Z960-27" style="edgeStyle=orthogonalEdgeStyle;html=1;fontSize=11;startArrow=blockThin;startFill=1;endArrow=none;endFill=0;strokeColor=#CC0000;strokeWidth=2;" parent="MM_dy48uZ_RCsjw1Z960-1" source="MM_dy48uZ_RCsjw1Z960-28" edge="1">
                    <mxGeometry relative="1" as="geometry">
                        <mxPoint x="265" y="150.00045453512416" as="targetPoint"/>
                    </mxGeometry>
                </mxCell>
                <mxCell id="MM_dy48uZ_RCsjw1Z960-28" value="" style="sketch=0;outlineConnect=0;fontColor=#232F3E;gradientColor=none;fillColor=#4D27AA;strokeColor=none;dashed=0;verticalLabelPosition=bottom;verticalAlign=top;align=center;html=1;fontSize=12;fontStyle=0;aspect=fixed;pointerEvents=1;shape=mxgraph.aws4.internet_gateway;dashPattern=1 1;" parent="MM_dy48uZ_RCsjw1Z960-1" vertex="1">
                    <mxGeometry x="245" y="60" width="40" height="40" as="geometry"/>
                </mxCell>
                <mxCell id="MM_dy48uZ_RCsjw1Z960-29" style="edgeStyle=orthogonalEdgeStyle;html=1;entryX=1;entryY=0.25;entryDx=0;entryDy=0;entryPerimeter=0;fontSize=11;startArrow=none;startFill=0;endArrow=blockThin;endFill=1;strokeColor=#CC0000;strokeWidth=2;" parent="MM_dy48uZ_RCsjw1Z960-1" source="MM_dy48uZ_RCsjw1Z960-11" target="MM_dy48uZ_RCsjw1Z960-26" edge="1">
                    <mxGeometry relative="1" as="geometry">
                        <Array as="points">
                            <mxPoint x="565" y="80"/>
                            <mxPoint x="530" y="80"/>
                            <mxPoint x="530" y="245"/>
                        </Array>
                    </mxGeometry>
                </mxCell>
                <mxCell id="MM_dy48uZ_RCsjw1Z960-30" style="edgeStyle=orthogonalEdgeStyle;html=1;fontSize=11;startArrow=blockThin;startFill=1;endArrow=none;endFill=0;strokeColor=#CC0000;strokeWidth=2;fillColor=#fff2cc;" parent="MM_dy48uZ_RCsjw1Z960-1" source="MM_dy48uZ_RCsjw1Z960-31" target="MM_dy48uZ_RCsjw1Z960-28" edge="1">
                    <mxGeometry relative="1" as="geometry"/>
                </mxCell>
                <mxCell id="MM_dy48uZ_RCsjw1Z960-31" value="" style="sketch=0;outlineConnect=0;fontColor=#232F3E;gradientColor=none;fillColor=#232F3D;strokeColor=none;dashed=0;verticalLabelPosition=bottom;verticalAlign=top;align=center;html=1;fontSize=12;fontStyle=0;aspect=fixed;pointerEvents=1;shape=mxgraph.aws4.client;dashPattern=1 1;" parent="MM_dy48uZ_RCsjw1Z960-1" vertex="1">
                    <mxGeometry x="245" y="-30" width="40" height="40" as="geometry"/>
                </mxCell>
                <mxCell id="MM_dy48uZ_RCsjw1Z960-35" style="edgeStyle=orthogonalEdgeStyle;html=1;fontSize=11;startArrow=none;startFill=0;endArrow=oval;endFill=0;" parent="MM_dy48uZ_RCsjw1Z960-1" source="MM_dy48uZ_RCsjw1Z960-21" target="MM_dy48uZ_RCsjw1Z960-26" edge="1">
                    <mxGeometry relative="1" as="geometry">
                        <Array as="points">
                            <mxPoint x="812" y="420"/>
                            <mxPoint x="495" y="420"/>
                        </Array>
                    </mxGeometry>
                </mxCell>
                <mxCell id="MM_dy48uZ_RCsjw1Z960-37" style="edgeStyle=orthogonalEdgeStyle;html=1;entryX=1;entryY=0.5;entryDx=0;entryDy=0;entryPerimeter=0;fontSize=11;startArrow=none;startFill=0;endArrow=blockThin;endFill=1;strokeColor=#CC0000;strokeWidth=2;" parent="MM_dy48uZ_RCsjw1Z960-1" source="MM_dy48uZ_RCsjw1Z960-14" target="MM_dy48uZ_RCsjw1Z960-26" edge="1">
                    <mxGeometry relative="1" as="geometry">
                        <Array as="points">
                            <mxPoint x="815" y="120"/>
                            <mxPoint x="638" y="120"/>
                            <mxPoint x="638" y="255"/>
                        </Array>
                    </mxGeometry>
                </mxCell>
            </root>
        </mxGraphModel>
    </diagram>
</mxfile>